<?xml version="1.0" encoding="UTF-8"?>
<svg width="800" height="400" viewBox="0 0 800 400" xmlns="http://www.w3.org/2000/svg">
  <defs>
    <linearGradient id="sky" x1="0" y1="0" x2="0" y2="1">
      <stop offset="0%" stop-color="#fff9c4"/>
      <stop offset="35%" stop-color="#ffecb3"/>
      <stop offset="70%" stop-color="#fff8e1"/>
      <stop offset="100%" stop-color="#fffde7"/>
    </linearGradient>
    <filter id="softShadow" x="-5%" y="-5%" width="110%" height="110%">
      <feDropShadow dx="0" dy="4" stdDeviation="8" flood-color="#bf360c" flood-opacity="0.15"/>
    </filter>
    <filter id="glow" x="-20%" y="-20%" width="140%" height="140%">
      <feGaussianBlur stdDeviation="4" result="blur"/>
      <feComposite in="SourceGraphic" in2="blur" operator="over"/>
    </filter>
    <radialGradient id="sunGlow" cx="50%" cy="50%" r="50%">
      <stop offset="0%" stop-color="#fff9c4" stop-opacity="0.6"/>
      <stop offset="100%" stop-color="#fff9c4" stop-opacity="0"/>
    </radialGradient>
  </defs>

  <!-- 天空背景 -->
  <rect width="800" height="400" fill="url(#sky)" rx="16"/>

  <!-- 远景大圆装饰 -->
  <circle cx="780" cy="20" r="100" fill="#fff" opacity="0.08"/>
  <circle cx="20" cy="390" r="70" fill="#fff" opacity="0.06"/>

  <!-- 节气专属场景 -->
  
    <!-- 麦田 -->
    <path d="M0 340 Q200 315 400 328 Q600 308 800 320 L800 400 L0 400Z" fill="#d4a017" opacity="0.6"/>
    <path d="M0 360 Q200 335 400 348 Q600 328 800 340 L800 400 L0 400Z" fill="#f9a825" opacity="0.7"/>
    <!-- 麦穗 -->
    
      <path d="M30 400 Q33 355 30 368" stroke="#8d6e63" stroke-width="1.5" fill="none" opacity="0.7"/>
      <ellipse cx="32" cy="358" rx="3" ry="7" fill="#fdd835" opacity="0.7" transform="rotate(-5,32,358)"/>
    
      <path d="M78 400 Q81 345 78 358" stroke="#8d6e63" stroke-width="1.5" fill="none" opacity="0.7"/>
      <ellipse cx="80" cy="348" rx="3" ry="7" fill="#fdd835" opacity="0.7799999999999999" transform="rotate(-5,80,348)"/>
    
      <path d="M126 400 Q129 355 126 368" stroke="#8d6e63" stroke-width="1.5" fill="none" opacity="0.7"/>
      <ellipse cx="128" cy="358" rx="3" ry="7" fill="#fdd835" opacity="0.86" transform="rotate(-5,128,358)"/>
    
      <path d="M174 400 Q177 345 174 358" stroke="#8d6e63" stroke-width="1.5" fill="none" opacity="0.7"/>
      <ellipse cx="176" cy="348" rx="3" ry="7" fill="#fdd835" opacity="0.7" transform="rotate(-5,176,348)"/>
    
      <path d="M222 400 Q225 355 222 368" stroke="#8d6e63" stroke-width="1.5" fill="none" opacity="0.7"/>
      <ellipse cx="224" cy="358" rx="3" ry="7" fill="#fdd835" opacity="0.7799999999999999" transform="rotate(-5,224,358)"/>
    
      <path d="M270 400 Q273 345 270 358" stroke="#8d6e63" stroke-width="1.5" fill="none" opacity="0.7"/>
      <ellipse cx="272" cy="348" rx="3" ry="7" fill="#fdd835" opacity="0.86" transform="rotate(-5,272,348)"/>
    
      <path d="M318 400 Q321 355 318 368" stroke="#8d6e63" stroke-width="1.5" fill="none" opacity="0.7"/>
      <ellipse cx="320" cy="358" rx="3" ry="7" fill="#fdd835" opacity="0.7" transform="rotate(-5,320,358)"/>
    
      <path d="M366 400 Q369 345 366 358" stroke="#8d6e63" stroke-width="1.5" fill="none" opacity="0.7"/>
      <ellipse cx="368" cy="348" rx="3" ry="7" fill="#fdd835" opacity="0.7799999999999999" transform="rotate(-5,368,348)"/>
    
      <path d="M414 400 Q417 355 414 368" stroke="#8d6e63" stroke-width="1.5" fill="none" opacity="0.7"/>
      <ellipse cx="416" cy="358" rx="3" ry="7" fill="#fdd835" opacity="0.86" transform="rotate(-5,416,358)"/>
    
      <path d="M462 400 Q465 345 462 358" stroke="#8d6e63" stroke-width="1.5" fill="none" opacity="0.7"/>
      <ellipse cx="464" cy="348" rx="3" ry="7" fill="#fdd835" opacity="0.7" transform="rotate(-5,464,348)"/>
    
      <path d="M510 400 Q513 355 510 368" stroke="#8d6e63" stroke-width="1.5" fill="none" opacity="0.7"/>
      <ellipse cx="512" cy="358" rx="3" ry="7" fill="#fdd835" opacity="0.7799999999999999" transform="rotate(-5,512,358)"/>
    
      <path d="M558 400 Q561 345 558 358" stroke="#8d6e63" stroke-width="1.5" fill="none" opacity="0.7"/>
      <ellipse cx="560" cy="348" rx="3" ry="7" fill="#fdd835" opacity="0.86" transform="rotate(-5,560,348)"/>
    
      <path d="M606 400 Q609 355 606 368" stroke="#8d6e63" stroke-width="1.5" fill="none" opacity="0.7"/>
      <ellipse cx="608" cy="358" rx="3" ry="7" fill="#fdd835" opacity="0.7" transform="rotate(-5,608,358)"/>
    
      <path d="M654 400 Q657 345 654 358" stroke="#8d6e63" stroke-width="1.5" fill="none" opacity="0.7"/>
      <ellipse cx="656" cy="348" rx="3" ry="7" fill="#fdd835" opacity="0.7799999999999999" transform="rotate(-5,656,348)"/>
    
      <path d="M702 400 Q705 355 702 368" stroke="#8d6e63" stroke-width="1.5" fill="none" opacity="0.7"/>
      <ellipse cx="704" cy="358" rx="3" ry="7" fill="#fdd835" opacity="0.86" transform="rotate(-5,704,358)"/>
    
      <path d="M750 400 Q753 345 750 358" stroke="#8d6e63" stroke-width="1.5" fill="none" opacity="0.7"/>
      <ellipse cx="752" cy="348" rx="3" ry="7" fill="#fdd835" opacity="0.7" transform="rotate(-5,752,348)"/>
    
    <!-- 小满池塘 -->
    <ellipse cx="620" cy="380" rx="140" ry="25" fill="#4fc3f7" opacity="0.5"/>
    <!-- 枇杷 -->
    <path d="M620 400 Q615 360 640 330 Q665 300 650 270" stroke="#6d4c41" stroke-width="4" fill="none" stroke-linecap="round"/>
    <circle cx="628" cy="285" r="7" fill="#ffa000" opacity="0.9"/><circle cx="642" cy="278" r="7" fill="#ffa000" opacity="0.9"/>
    <circle cx="656" cy="272" r="6.5" fill="#ffa000" opacity="0.9"/><circle cx="635" cy="295" r="6" fill="#ffa000" opacity="0.85"/>
    <circle cx="650" cy="290" r="6" fill="#ffa000" opacity="0.85"/>
  

  <!-- 底部渐变遮罩 -->
  <rect x="0" y="320" width="800" height="80" fill="url(#sky)" opacity="0.3" rx="0"/>

  <!-- 标题区背景 -->
  <rect x="250" y="130" width="300" height="160" fill="#fff" opacity="0.18" rx="12"/>

  <!-- 主标题 -->
  <text x="400" y="208" text-anchor="middle" font-size="80" font-weight="bold"
    fill="#bf360c" font-family="'Noto Serif SC', 'SimHei', 'STKaiti', serif"
    filter="url(#softShadow)" letter-spacing="8">小满</text>

  <!-- 拼音 -->
  <text x="400" y="246" text-anchor="middle" font-size="20"
    fill="#bf360c" opacity="0.7"
    font-family="Arial, sans-serif" letter-spacing="6">Xiǎomǎn</text>

  <!-- 分隔线 -->
  <line x1="350" y1="265" x2="450" y2="265" stroke="#bf360c" stroke-width="1.5" opacity="0.4"/>

  <!-- 日期 -->
  <text x="400" y="287" text-anchor="middle" font-size="15"
    fill="#bf360c" opacity="0.65"
    font-family="'Noto Sans SC', Arial, sans-serif">05月20日 · 二十四节气</text>

  <!-- 底部关键词 -->
  <text x="400" y="378" text-anchor="middle" font-size="13"
    fill="#bf360c" opacity="0.5"
    font-family="'Noto Sans SC', Arial, sans-serif">饱满  ·  蓄水  ·  灌溉  ·  麦熟</text>
</svg>