<?xml version="1.0" encoding="UTF-8"?>
<svg width="1300" height="400" viewBox="0 0 1300 400" xmlns="http://www.w3.org/2000/svg">
  <defs>
    <linearGradient id="sky" x1="0" y1="0" x2="0" y2="1">
      <stop offset="0%" stop-color="#ffe0b2"/>
      <stop offset="35%" stop-color="#ffcc80"/>
      <stop offset="70%" stop-color="#fff3e0"/>
      <stop offset="100%" stop-color="#fff8e1"/>
    </linearGradient>
    <filter id="softShadow" x="-5%" y="-5%" width="110%" height="110%">
      <feDropShadow dx="0" dy="4" stdDeviation="8" flood-color="#bf360c" flood-opacity="0.15"/>
    </filter>
    <filter id="glow" x="-20%" y="-20%" width="140%" height="140%">
      <feGaussianBlur stdDeviation="4" result="blur"/>
      <feComposite in="SourceGraphic" in2="blur" operator="over"/>
    </filter>
    <radialGradient id="sunGlow" cx="50%" cy="50%" r="50%">
      <stop offset="0%" stop-color="#fff9c4" stop-opacity="0.6"/>
      <stop offset="100%" stop-color="#fff9c4" stop-opacity="0"/>
    </radialGradient>
  </defs>

  <!-- 天空背景 -->
  <rect width="1300" height="400" fill="url(#sky)" rx="16"/>

  <!-- 远景大圆装饰 -->
  <circle cx="1267.5" cy="20" r="100" fill="#fff" opacity="0.08"/>
  <circle cx="32.5" cy="390" r="70" fill="#fff" opacity="0.06"/>

  <!-- 节气专属场景 -->
  
    <!-- 露水远山 -->
    <path d="M0 290 Q200 265 400 280 Q600 250 800 265 L800 400 L0 400Z" fill="#ff8a65" opacity="0.45"/>
    <!-- 晨雾 -->
    <ellipse cx="487.5" cy="300" rx="350" ry="70" fill="rgba(255,224,178,0.4)" opacity="0.5"/>
    <ellipse cx="975.0" cy="310" rx="280" ry="55" fill="rgba(255,224,178,0.4)" opacity="0.4"/>
    <!-- 草叶露珠 -->
    <path d="M0 360 Q200 340 400 352 Q600 335 800 348 L800 400 L0 400Z" fill="#bf360c" opacity="0.7"/>
    
      <circle cx="48.75" cy="330" r="2" fill="#e3f2fd" opacity="0.5"/>
      <circle cx="48.75" cy="330" r="1" fill="#fff" opacity="0.6"/>
    
      <circle cx="110.5" cy="345" r="3.5" fill="#e3f2fd" opacity="0.6"/>
      <circle cx="110.5" cy="345" r="1.8" fill="#fff" opacity="0.72"/>
    
      <circle cx="172.25" cy="360" r="5" fill="#e3f2fd" opacity="0.7"/>
      <circle cx="172.25" cy="360" r="1" fill="#fff" opacity="0.84"/>
    
      <circle cx="234.0" cy="375" r="2" fill="#e3f2fd" opacity="0.8"/>
      <circle cx="234.0" cy="375" r="1.8" fill="#fff" opacity="0.6"/>
    
      <circle cx="295.75" cy="330" r="3.5" fill="#e3f2fd" opacity="0.5"/>
      <circle cx="295.75" cy="330" r="1" fill="#fff" opacity="0.72"/>
    
      <circle cx="357.5" cy="345" r="5" fill="#e3f2fd" opacity="0.6"/>
      <circle cx="357.5" cy="345" r="1.8" fill="#fff" opacity="0.84"/>
    
      <circle cx="419.25" cy="360" r="2" fill="#e3f2fd" opacity="0.7"/>
      <circle cx="419.25" cy="360" r="1" fill="#fff" opacity="0.6"/>
    
      <circle cx="481.0" cy="375" r="3.5" fill="#e3f2fd" opacity="0.8"/>
      <circle cx="481.0" cy="375" r="1.8" fill="#fff" opacity="0.72"/>
    
      <circle cx="542.75" cy="330" r="5" fill="#e3f2fd" opacity="0.5"/>
      <circle cx="542.75" cy="330" r="1" fill="#fff" opacity="0.84"/>
    
      <circle cx="604.5" cy="345" r="2" fill="#e3f2fd" opacity="0.6"/>
      <circle cx="604.5" cy="345" r="1.8" fill="#fff" opacity="0.6"/>
    
      <circle cx="666.25" cy="360" r="3.5" fill="#e3f2fd" opacity="0.7"/>
      <circle cx="666.25" cy="360" r="1" fill="#fff" opacity="0.72"/>
    
      <circle cx="728.0" cy="375" r="5" fill="#e3f2fd" opacity="0.8"/>
      <circle cx="728.0" cy="375" r="1.8" fill="#fff" opacity="0.84"/>
    
      <circle cx="789.75" cy="330" r="2" fill="#e3f2fd" opacity="0.5"/>
      <circle cx="789.75" cy="330" r="1" fill="#fff" opacity="0.6"/>
    
      <circle cx="851.5" cy="345" r="3.5" fill="#e3f2fd" opacity="0.6"/>
      <circle cx="851.5" cy="345" r="1.8" fill="#fff" opacity="0.72"/>
    
      <circle cx="913.25" cy="360" r="5" fill="#e3f2fd" opacity="0.7"/>
      <circle cx="913.25" cy="360" r="1" fill="#fff" opacity="0.84"/>
    
      <circle cx="975.0" cy="375" r="2" fill="#e3f2fd" opacity="0.8"/>
      <circle cx="975.0" cy="375" r="1.8" fill="#fff" opacity="0.6"/>
    
      <circle cx="1036.75" cy="330" r="3.5" fill="#e3f2fd" opacity="0.5"/>
      <circle cx="1036.75" cy="330" r="1" fill="#fff" opacity="0.72"/>
    
      <circle cx="1098.5" cy="345" r="5" fill="#e3f2fd" opacity="0.6"/>
      <circle cx="1098.5" cy="345" r="1.8" fill="#fff" opacity="0.84"/>
    
      <circle cx="1160.25" cy="360" r="2" fill="#e3f2fd" opacity="0.7"/>
      <circle cx="1160.25" cy="360" r="1" fill="#fff" opacity="0.6"/>
    
      <circle cx="1222.0" cy="375" r="3.5" fill="#e3f2fd" opacity="0.8"/>
      <circle cx="1222.0" cy="375" r="1.8" fill="#fff" opacity="0.72"/>
    
    <!-- 蒹葭 -->
    
      <path d="M50 400 Q53 360 50 370" stroke="#f4511e" stroke-width="2" fill="none" stroke-linecap="round" opacity="0.5"/>
      <path d="M50 370 Q55 358 50 365" stroke="#f4511e" stroke-width="1.5" fill="none" opacity="0.4"/>
    
      <path d="M145 400 Q148 348 145 358" stroke="#f4511e" stroke-width="2" fill="none" stroke-linecap="round" opacity="0.7"/>
      <path d="M145 358 Q150 346 145 353" stroke="#f4511e" stroke-width="1.5" fill="none" opacity="0.55"/>
    
      <path d="M240 400 Q243 360 240 370" stroke="#f4511e" stroke-width="2" fill="none" stroke-linecap="round" opacity="0.5"/>
      <path d="M240 370 Q245 358 240 365" stroke="#f4511e" stroke-width="1.5" fill="none" opacity="0.4"/>
    
      <path d="M335 400 Q338 348 335 358" stroke="#f4511e" stroke-width="2" fill="none" stroke-linecap="round" opacity="0.7"/>
      <path d="M335 358 Q340 346 335 353" stroke="#f4511e" stroke-width="1.5" fill="none" opacity="0.55"/>
    
      <path d="M430 400 Q433 360 430 370" stroke="#f4511e" stroke-width="2" fill="none" stroke-linecap="round" opacity="0.5"/>
      <path d="M430 370 Q435 358 430 365" stroke="#f4511e" stroke-width="1.5" fill="none" opacity="0.4"/>
    
      <path d="M525 400 Q528 348 525 358" stroke="#f4511e" stroke-width="2" fill="none" stroke-linecap="round" opacity="0.7"/>
      <path d="M525 358 Q530 346 525 353" stroke="#f4511e" stroke-width="1.5" fill="none" opacity="0.55"/>
    
      <path d="M620 400 Q623 360 620 370" stroke="#f4511e" stroke-width="2" fill="none" stroke-linecap="round" opacity="0.5"/>
      <path d="M620 370 Q625 358 620 365" stroke="#f4511e" stroke-width="1.5" fill="none" opacity="0.4"/>
    
      <path d="M715 400 Q718 348 715 358" stroke="#f4511e" stroke-width="2" fill="none" stroke-linecap="round" opacity="0.7"/>
      <path d="M715 358 Q720 346 715 353" stroke="#f4511e" stroke-width="1.5" fill="none" opacity="0.55"/>
    
    <!-- 晨鸟 -->
    <path d="M620 200 Q635 193 650 198 Q635 196 620 200Z" fill="#bf360c"/>
    <circle cx="1004.25" cy="197" r="3" fill="#bf360c"/>
    <!-- 朝霞 -->
    <ellipse cx="650.0" cy="220" rx="200" ry="40" fill="#ffa000" opacity="0.15"/>
  

  <!-- 底部渐变遮罩 -->
  <rect x="0.0" y="320" width="1300" height="80" fill="url(#sky)" opacity="0.3" rx="0"/>

  <!-- 标题区背景 -->
  <rect x="406.25" y="130" width="300" height="160" fill="#fff" opacity="0.18" rx="12"/>

  <!-- 主标题 -->
  <text x="1056.25" y="208" text-anchor="middle" font-size="80" font-weight="bold"
    fill="#bf360c" font-family="'Noto Serif SC', 'SimHei', 'STKaiti', serif"
    filter="url(#softShadow)" letter-spacing="8">白露</text>

  <!-- 拼音 -->
  <text x="1056.25" y="246" text-anchor="middle" font-size="20"
    fill="#bf360c" opacity="0.7"
    font-family="Arial, sans-serif" letter-spacing="6">Báilù</text>

  <!-- 分隔线 -->
  <line x1="350" y1="265" x2="450" y2="265" stroke="#bf360c" stroke-width="1.5" opacity="0.4"/>

  <!-- 日期 -->
  <text x="1056.25" y="287" text-anchor="middle" font-size="15"
    fill="#bf360c" opacity="0.65"
    font-family="'Noto Sans SC', Arial, sans-serif">09月07日 · 二十四节气</text>

  <!-- 底部关键词 -->
  <text x="1056.25" y="378" text-anchor="middle" font-size="13"
    fill="#bf360c" opacity="0.5"
    font-family="'Noto Sans SC', Arial, sans-serif">露水  ·  秋凉  ·  凝露  ·  仲秋</text>
</svg>