<?xml version="1.0" encoding="UTF-8"?>
<svg width="1300" height="400" viewBox="0 0 1300 400" xmlns="http://www.w3.org/2000/svg">
  <defs>
    <linearGradient id="sky" x1="0" y1="0" x2="0" y2="1">
      <stop offset="0%" stop-color="#e3f2fd"/>
      <stop offset="35%" stop-color="#bbdefb"/>
      <stop offset="70%" stop-color="#f5f5f5"/>
      <stop offset="100%" stop-color="#eceff1"/>
    </linearGradient>
    <filter id="softShadow" x="-5%" y="-5%" width="110%" height="110%">
      <feDropShadow dx="0" dy="4" stdDeviation="8" flood-color="#37474f" flood-opacity="0.15"/>
    </filter>
    <filter id="glow" x="-20%" y="-20%" width="140%" height="140%">
      <feGaussianBlur stdDeviation="4" result="blur"/>
      <feComposite in="SourceGraphic" in2="blur" operator="over"/>
    </filter>
    <radialGradient id="sunGlow" cx="50%" cy="50%" r="50%">
      <stop offset="0%" stop-color="#fff9c4" stop-opacity="0.6"/>
      <stop offset="100%" stop-color="#fff9c4" stop-opacity="0"/>
    </radialGradient>
  </defs>

  <!-- 天空背景 -->
  <rect width="1300" height="400" fill="url(#sky)" rx="16"/>

  <!-- 远景大圆装饰 -->
  <circle cx="1267.5" cy="20" r="100" fill="#fff" opacity="0.08"/>
  <circle cx="32.5" cy="390" r="70" fill="#fff" opacity="0.06"/>

  <!-- 节气专属场景 -->
  
    <!-- 初冬山景 -->
    <path d="M0 290 Q200 265 400 278 Q600 250 800 265 L800 400 L0 400Z" fill="#90a4ae" opacity="0.5"/>
    <!-- 初雪 -->
    <path d="M0 340 Q200 318 400 330 Q600 312 800 325 L800 400 L0 400Z" fill="#78909c" opacity="0.6"/>
    <!-- 飘雪 -->
    <circle cx="0.0" cy="78" r="1" fill="#fff" opacity="0.24"/><circle cx="26.1" cy="71.34990390875343" r="1.8" fill="#fff" opacity="0.312"/><circle cx="-31.882758110795063" cy="52.533558661239724" r="2.6" fill="#fff" opacity="0.384"/><circle cx="76.72" cy="24.759438718536728" r="1" fill="#fff" opacity="0.45599999999999996"/><circle cx="-61.818076971567585" cy="-7.236543958617549" r="1.8" fill="#fff" opacity="0.528"/><circle cx="122.65" cy="-37.998585284660635" r="2.6" fill="#fff" opacity="0.24"/><circle cx="-87.97746938842985" cy="-62.281287034436524" r="1" fill="#fff" opacity="0.312"/><circle cx="161.09" cy="-75.94407741330187" r="1.8" fill="#fff" opacity="0.384"/><circle cx="-108.76308653750326" cy="-76.65724183423066" r="2.6" fill="#fff" opacity="0.45599999999999996"/><circle cx="189.68" cy="-64.29917486317075" r="1" fill="#fff" opacity="0.528"/><circle cx="-122.90531659501208" cy="-40.97711580421467" r="1.8" fill="#fff" opacity="0.24"/><circle cx="206.7" cy="-10.667832190382548" r="2.6" fill="#fff" opacity="0.312"/><circle cx="-129.5403342356462" cy="21.46047986322745" r="1" fill="#fff" opacity="0.384"/><circle cx="211.08" cy="49.92945208979324" r="1.8" fill="#fff" opacity="0.45599999999999996"/><circle cx="-128.26286417760406" cy="69.88468959378424" r="2.6" fill="#fff" opacity="0.528"/><circle cx="202.58" cy="77.92351937711875" r="1" fill="#fff" opacity="0.24"/><circle cx="-119.15093591015118" cy="72.67519809312111" r="1.8" fill="#fff" opacity="0.312"/><circle cx="181.7" cy="55.03464473810723" r="2.6" fill="#fff" opacity="0.384"/><circle cx="-102.7611175535788" cy="28.00984328422077" r="1" fill="#fff" opacity="0.45599999999999996"/><circle cx="149.72" cy="-3.7910645630201714" r="1.8" fill="#fff" opacity="0.528"/>
    <circle cx="406.25" cy="90" r="1" fill="#fff" opacity="0.2"/><circle cx="426.33" cy="84.88454146827188" r="1.8" fill="#fff" opacity="0.26"/><circle cx="366.4" cy="70.41042973941518" r="2.6" fill="#fff" opacity="0.32"/><circle cx="465.27" cy="49.0457220911821" r="1" fill="#fff" opacity="0.38"/><circle cx="328.98" cy="24.433427724140348" r="1.8" fill="#fff" opacity="0.44"/><circle cx="500.6" cy="0.7703190117995149" r="2.6" fill="#fff" opacity="0.2"/><circle cx="296.28" cy="-17.90868233418194" r="1" fill="#fff" opacity="0.26"/><circle cx="530.16" cy="-28.418521087155277" r="1.8" fill="#fff" opacity="0.32"/><circle cx="270.3" cy="-28.96710910325435" r="2.6" fill="#fff" opacity="0.38"/><circle cx="552.16" cy="-19.460903740900577" r="1" fill="#fff" opacity="0.44"/><circle cx="252.62" cy="-1.5208583109343614" r="1.8" fill="#fff" opacity="0.2"/><circle cx="565.25" cy="21.79397523816727" r="2.6" fill="#fff" opacity="0.26"/><circle cx="244.32" cy="46.50806143325188" r="1" fill="#fff" opacity="0.32"/><circle cx="568.62" cy="68.4072708383025" r="1.8" fill="#fff" opacity="0.38"/><circle cx="245.92" cy="83.75745353368019" r="2.6" fill="#fff" opacity="0.44"/><circle cx="562.08" cy="89.9411687516298" r="1" fill="#fff" opacity="0.2"/><circle cx="257.31" cy="85.9039985331701" r="1.8" fill="#fff" opacity="0.26"/><circle cx="546.02" cy="72.33434210623633" r="2.6" fill="#fff" opacity="0.32"/><circle cx="277.8" cy="51.54603329555444" r="1" fill="#fff" opacity="0.38"/><circle cx="521.42" cy="27.083796489984483" r="1.8" fill="#fff" opacity="0.44"/>
    <!-- 冬树 -->
    <path d="M150 400 L150 260" stroke="#6d4c41" stroke-width="5" stroke-linecap="round"/>
    <path d="M150 310 Q120 280 85 290" stroke="#6d4c41" stroke-width="3" fill="none" stroke-linecap="round"/>
    <path d="M150 290 Q185 260 220 270" stroke="#6d4c41" stroke-width="2.5" fill="none" stroke-linecap="round"/>
    <path d="M150 270 Q130 245 110 252" stroke="#6d4c41" stroke-width="2" fill="none" stroke-linecap="round"/>
    <path d="M150 270 Q175 248 198 255" stroke="#6d4c41" stroke-width="2" fill="none" stroke-linecap="round"/>
    <!-- 冬收萝卜 -->
    <ellipse cx="780.0" cy="388" rx="22" ry="12" fill="#f48fb1" opacity="0.9"/>
    <ellipse cx="780.0" cy="382" rx="18" ry="8" fill="#f8bbd0" opacity="0.8"/>
    <path d="M480 376 L480 360" stroke="#66bb6a" stroke-width="2.5"/>
    <path d="M476 365 Q480 360 484 365" stroke="#4caf50" stroke-width="1.5" fill="none"/>
    <!-- 薄冰水面 -->
    <path d="M0 370 Q200 355 400 362 Q600 350 800 358 L800 400 L0 400Z" fill="#b0bec5" opacity="0.55"/>
    <path d="M0 375 Q200 360 400 367 Q600 355 800 363 L800 380 L0 380Z" fill="#fff" opacity="0.3"/>
  

  <!-- 底部渐变遮罩 -->
  <rect x="0.0" y="320" width="1300" height="80" fill="url(#sky)" opacity="0.3" rx="0"/>

  <!-- 标题区背景 -->
  <rect x="406.25" y="130" width="300" height="160" fill="#fff" opacity="0.18" rx="12"/>

  <!-- 主标题 -->
  <text x="1056.25" y="208" text-anchor="middle" font-size="80" font-weight="bold"
    fill="#37474f" font-family="'Noto Serif SC', 'SimHei', 'STKaiti', serif"
    filter="url(#softShadow)" letter-spacing="8">立冬</text>

  <!-- 拼音 -->
  <text x="1056.25" y="246" text-anchor="middle" font-size="20"
    fill="#37474f" opacity="0.7"
    font-family="Arial, sans-serif" letter-spacing="6">Lìdōng</text>

  <!-- 分隔线 -->
  <line x1="350" y1="265" x2="450" y2="265" stroke="#37474f" stroke-width="1.5" opacity="0.4"/>

  <!-- 日期 -->
  <text x="1056.25" y="287" text-anchor="middle" font-size="15"
    fill="#37474f" opacity="0.65"
    font-family="'Noto Sans SC', Arial, sans-serif">11月07日 · 二十四节气</text>

  <!-- 底部关键词 -->
  <text x="1056.25" y="378" text-anchor="middle" font-size="13"
    fill="#37474f" opacity="0.5"
    font-family="'Noto Sans SC', Arial, sans-serif">收藏  ·  冬始  ·  寒风  ·  养藏</text>
</svg>