<?xml version="1.0" encoding="UTF-8"?>
<svg width="1300" height="400" viewBox="0 0 1300 400" xmlns="http://www.w3.org/2000/svg">
  <defs>
    <linearGradient id="sky" x1="0" y1="0" x2="0" y2="1">
      <stop offset="0%" stop-color="#e3f2fd"/>
      <stop offset="35%" stop-color="#bbdefb"/>
      <stop offset="70%" stop-color="#f5f5f5"/>
      <stop offset="100%" stop-color="#eceff1"/>
    </linearGradient>
    <filter id="softShadow" x="-5%" y="-5%" width="110%" height="110%">
      <feDropShadow dx="0" dy="4" stdDeviation="8" flood-color="#37474f" flood-opacity="0.15"/>
    </filter>
    <filter id="glow" x="-20%" y="-20%" width="140%" height="140%">
      <feGaussianBlur stdDeviation="4" result="blur"/>
      <feComposite in="SourceGraphic" in2="blur" operator="over"/>
    </filter>
    <radialGradient id="sunGlow" cx="50%" cy="50%" r="50%">
      <stop offset="0%" stop-color="#fff9c4" stop-opacity="0.6"/>
      <stop offset="100%" stop-color="#fff9c4" stop-opacity="0"/>
    </radialGradient>
  </defs>

  <!-- 天空背景 -->
  <rect width="1300" height="400" fill="url(#sky)" rx="16"/>

  <!-- 远景大圆装饰 -->
  <circle cx="1267.5" cy="20" r="100" fill="#fff" opacity="0.08"/>
  <circle cx="32.5" cy="390" r="70" fill="#fff" opacity="0.06"/>

  <!-- 节气专属场景 -->
  
    <!-- 小雪山景 -->
    <path d="M0 285 Q200 258 400 272 Q600 245 800 260 L800 400 L0 400Z" fill="#90a4ae" opacity="0.55"/>
    <!-- 薄雪覆盖 -->
    <path d="M0 350 Q200 328 400 340 Q600 322 800 335 L800 400 L0 400Z" fill="#78909c" opacity="0.6"/>
    <!-- 中雪 -->
    <circle cx="0.0" cy="84" r="1" fill="#fff" opacity="0.27999999999999997"/><circle cx="28.11" cy="76.83835805558063" r="1.8" fill="#fff" opacity="0.364"/><circle cx="-34.335277965471604" cy="56.57460163518124" r="2.6" fill="#fff" opacity="0.44799999999999995"/><circle cx="82.62" cy="26.66401092765494" r="1" fill="#fff" opacity="0.5319999999999999"/><circle cx="-66.57331366168816" cy="-7.793201186203514" r="1.8" fill="#fff" opacity="0.616"/><circle cx="132.08" cy="-40.921553383480685" r="2.6" fill="#fff" opacity="0.27999999999999997"/><circle cx="-94.74496703369368" cy="-67.07215526785471" r="1" fill="#fff" opacity="0.364"/><circle cx="173.48" cy="-81.78592952201738" r="1.8" fill="#fff" opacity="0.44799999999999995"/><circle cx="-117.12947780961889" cy="-82.5539527445561" r="2.6" fill="#fff" opacity="0.5319999999999999"/><circle cx="204.28" cy="-69.24526523726082" r="1" fill="#fff" opacity="0.616"/><circle cx="-132.3595717177053" cy="-44.129201635308114" r="1.8" fill="#fff" opacity="0.27999999999999997"/><circle cx="222.6" cy="-11.488434666565821" r="2.6" fill="#fff" opacity="0.364"/><circle cx="-139.5049753306959" cy="23.11128600655264" r="1" fill="#fff" opacity="0.44799999999999995"/><circle cx="227.32" cy="53.77017917362349" r="1.8" fill="#fff" opacity="0.5319999999999999"/><circle cx="-138.12923834511207" cy="75.26043494715226" r="2.6" fill="#fff" opacity="0.616"/><circle cx="218.16" cy="83.91763625228171" r="1" fill="#fff" opacity="0.27999999999999997"/><circle cx="-128.31639251862433" cy="78.26559794643812" r="1.8" fill="#fff" opacity="0.364"/><circle cx="195.67" cy="59.26807894873087" r="2.6" fill="#fff" opacity="0.44799999999999995"/><circle cx="-110.6658189038541" cy="30.16444661377622" r="1" fill="#fff" opacity="0.5319999999999999"/><circle cx="161.23" cy="-4.082684914021724" r="1.8" fill="#fff" opacity="0.616"/>
    <circle cx="292.5" cy="106" r="1" fill="#fff" opacity="0.24"/><circle cx="314.59" cy="100.37299561509906" r="1.8" fill="#fff" opacity="0.312"/><circle cx="248.66" cy="84.4514727133567" r="2.6" fill="#fff" opacity="0.384"/><circle cx="357.42" cy="60.950294300300314" r="1" fill="#fff" opacity="0.45599999999999996"/><circle cx="207.5" cy="33.87677049655438" r="1.8" fill="#fff" opacity="0.528"/><circle cx="396.28" cy="7.847350912979465" r="2.6" fill="#fff" opacity="0.24"/><circle cx="171.53" cy="-12.699550567600134" r="1" fill="#fff" opacity="0.312"/><circle cx="428.8" cy="-24.260373195870798" r="1.8" fill="#fff" opacity="0.384"/><circle cx="142.95" cy="-24.863820013579797" r="2.6" fill="#fff" opacity="0.45599999999999996"/><circle cx="453.0" cy="-14.406994114990646" r="1" fill="#fff" opacity="0.528"/><circle cx="123.51" cy="5.327055857972198" r="1.8" fill="#fff" opacity="0.24"/><circle cx="467.4" cy="30.973372761983995" r="2.6" fill="#fff" opacity="0.312"/><circle cx="114.38" cy="58.15886757657707" r="1" fill="#fff" opacity="0.384"/><circle cx="471.11" cy="82.24799792213274" r="1.8" fill="#fff" opacity="0.45599999999999996"/><circle cx="116.14" cy="99.13319888704821" r="2.6" fill="#fff" opacity="0.528"/><circle cx="463.91" cy="105.93528562679278" r="1" fill="#fff" opacity="0.24"/><circle cx="128.67" cy="101.49439838648709" r="1.8" fill="#fff" opacity="0.312"/><circle cx="446.24" cy="86.56777631685998" r="2.6" fill="#fff" opacity="0.384"/><circle cx="151.2" cy="63.70063662510988" r="1" fill="#fff" opacity="0.45599999999999996"/><circle cx="419.18" cy="36.79217613898293" r="1.8" fill="#fff" opacity="0.528"/>
    <circle cx="585.0" cy="74" r="1" fill="#fff" opacity="0.2"/><circle cx="603.07" cy="69.39608732144468" r="1.8" fill="#fff" opacity="0.26"/><circle cx="549.13" cy="56.36938676547366" r="2.6" fill="#fff" opacity="0.32"/><circle cx="638.11" cy="37.141149882063885" r="1" fill="#fff" opacity="0.38"/><circle cx="515.45" cy="14.990084951726313" r="1.8" fill="#fff" opacity="0.44"/><circle cx="669.91" cy="-6.306712889380439" r="2.6" fill="#fff" opacity="0.2"/><circle cx="486.03" cy="-23.117814100763752" r="1" fill="#fff" opacity="0.26"/><circle cx="696.52" cy="-32.576668978439756" r="1.8" fill="#fff" opacity="0.32"/><circle cx="462.64" cy="-33.07039819292892" r="2.6" fill="#fff" opacity="0.38"/><circle cx="716.32" cy="-24.51481336681052" r="1" fill="#fff" opacity="0.44"/><circle cx="446.73" cy="-8.368772479840931" r="1.8" fill="#fff" opacity="0.2"/><circle cx="728.1" cy="12.614577714350544" r="2.6" fill="#fff" opacity="0.26"/><circle cx="439.27" cy="34.8572552899267" r="1" fill="#fff" opacity="0.32"/><circle cx="731.13" cy="54.56654375447224" r="1.8" fill="#fff" opacity="0.38"/><circle cx="440.7" cy="68.38170818031217" r="2.6" fill="#fff" opacity="0.44"/><circle cx="725.25" cy="73.94705187646682" r="1" fill="#fff" opacity="0.2"/><circle cx="450.96" cy="70.31359867985309" r="1.8" fill="#fff" opacity="0.26"/><circle cx="710.79" cy="58.1009078956127" r="2.6" fill="#fff" opacity="0.32"/><circle cx="469.39" cy="39.391429965998995" r="1" fill="#fff" opacity="0.38"/><circle cx="688.65" cy="17.375416840986034" r="1.8" fill="#fff" opacity="0.44"/>
    <!-- 窗户灯光 -->
    <rect x="568.75" y="310" width="60" height="50" fill="#ffe082" opacity="0.85" rx="3"/>
    <rect x="581.75" y="318" width="18" height="16" fill="#fff9c4" opacity="0.6" rx="1"/>
    <rect x="624.0" y="318" width="18" height="16" fill="#fff9c4" opacity="0.6" rx="1"/>
    <rect x="581.75" y="342" width="18" height="14" fill="#fff9c4" opacity="0.5" rx="1"/>
    <rect x="624.0" y="342" width="18" height="14" fill="#fff9c4" opacity="0.5" rx="1"/>
    <!-- 积雪屋檐 -->
    <path d="M345 310 L410 310" stroke="#fff" stroke-width="4" opacity="0.7"/>
    <path d="M355 310 Q360 315 365 310" stroke="#fff" stroke-width="2" fill="none" opacity="0.6"/>
    <path d="M395 310 Q400 315 405 310" stroke="#fff" stroke-width="2" fill="none" opacity="0.6"/>
    <!-- 冬日梅花 -->
    <path d="M620 400 Q610 350 640 310 Q670 270 650 230" stroke="#5d4037" stroke-width="3.5" fill="none" stroke-linecap="round"/>
    <path d="M640 310 Q670 290 700 300" stroke="#5d4037" stroke-width="2.5" fill="none" stroke-linecap="round"/>
    <path d="M640 270 Q665 252 690 262" stroke="#5d4037" stroke-width="2" fill="none" stroke-linecap="round"/>
    <circle cx="1036.75" cy="238" r="5.5" fill="#f48fb1"/><circle cx="1066.0" cy="222" r="5" fill="#f48fb1"/><circle cx="1096.88" cy="208" r="5" fill="#f8bbd0"/>
    <circle cx="1053.0" cy="250" r="4.5" fill="#f8bbd0"/><circle cx="1085.5" cy="236" r="4" fill="#f48fb1"/><circle cx="1118.0" cy="222" r="4" fill="#f8bbd0"/>
    <!-- 积雪 -->
    <ellipse cx="650.0" cy="370" rx="80" ry="10" fill="#fff" opacity="0.5"/>
  

  <!-- 底部渐变遮罩 -->
  <rect x="0.0" y="320" width="1300" height="80" fill="url(#sky)" opacity="0.3" rx="0"/>

  <!-- 标题区背景 -->
  <rect x="406.25" y="130" width="300" height="160" fill="#fff" opacity="0.18" rx="12"/>

  <!-- 主标题 -->
  <text x="1056.25" y="208" text-anchor="middle" font-size="80" font-weight="bold"
    fill="#37474f" font-family="'Noto Serif SC', 'SimHei', 'STKaiti', serif"
    filter="url(#softShadow)" letter-spacing="8">小雪</text>

  <!-- 拼音 -->
  <text x="1056.25" y="246" text-anchor="middle" font-size="20"
    fill="#37474f" opacity="0.7"
    font-family="Arial, sans-serif" letter-spacing="6">Xiǎoxuě</text>

  <!-- 分隔线 -->
  <line x1="350" y1="265" x2="450" y2="265" stroke="#37474f" stroke-width="1.5" opacity="0.4"/>

  <!-- 日期 -->
  <text x="1056.25" y="287" text-anchor="middle" font-size="15"
    fill="#37474f" opacity="0.65"
    font-family="'Noto Sans SC', Arial, sans-serif">11月22日 · 二十四节气</text>

  <!-- 底部关键词 -->
  <text x="1056.25" y="378" text-anchor="middle" font-size="13"
    fill="#37474f" opacity="0.5"
    font-family="'Noto Sans SC', Arial, sans-serif">初雪  ·  腌制  ·  寒风  ·  冬意</text>
</svg>