<?xml version="1.0" encoding="UTF-8"?>
<svg width="800" height="400" viewBox="0 0 800 400" xmlns="http://www.w3.org/2000/svg">
  <defs>
    <linearGradient id="sky" x1="0" y1="0" x2="0" y2="1">
      <stop offset="0%" stop-color="#ffe0b2"/>
      <stop offset="35%" stop-color="#ffcc80"/>
      <stop offset="70%" stop-color="#fff3e0"/>
      <stop offset="100%" stop-color="#fff8e1"/>
    </linearGradient>
    <filter id="softShadow" x="-5%" y="-5%" width="110%" height="110%">
      <feDropShadow dx="0" dy="4" stdDeviation="8" flood-color="#bf360c" flood-opacity="0.15"/>
    </filter>
    <filter id="glow" x="-20%" y="-20%" width="140%" height="140%">
      <feGaussianBlur stdDeviation="4" result="blur"/>
      <feComposite in="SourceGraphic" in2="blur" operator="over"/>
    </filter>
    <radialGradient id="sunGlow" cx="50%" cy="50%" r="50%">
      <stop offset="0%" stop-color="#fff9c4" stop-opacity="0.6"/>
      <stop offset="100%" stop-color="#fff9c4" stop-opacity="0"/>
    </radialGradient>
  </defs>

  <!-- 天空背景 -->
  <rect width="800" height="400" fill="url(#sky)" rx="16"/>

  <!-- 远景大圆装饰 -->
  <circle cx="780" cy="20" r="100" fill="#fff" opacity="0.08"/>
  <circle cx="20" cy="390" r="70" fill="#fff" opacity="0.06"/>

  <!-- 节气专属场景 -->
  
    <!-- 秋山层林 -->
    <path d="M0 290 Q150 265 300 278 Q500 250 700 270 Q780 255 800 262 L800 400 L0 400Z" fill="#ff8a65" opacity="0.6"/>
    <path d="M0 320 Q200 295 400 308 Q600 285 800 298 L800 400 L0 400Z" fill="#f4511e" opacity="0.65"/>
    <path d="M0 350 Q200 325 400 338 Q600 318 800 330 L800 400 L0 400Z" fill="#bf360c" opacity="0.7"/>
    <!-- 秋叶枫红 -->
    <path d="M0 0 Q6 -10 12 0" stroke="#bf360c" stroke-width="1.5" fill="none" opacity="0.35" transform="rotate(0,6,-5)"/><path d="M50 18 Q56 8 62 18" stroke="#bf360c" stroke-width="1.5" fill="none" opacity="0.45499999999999996" transform="rotate(53,56,13)"/><path d="M76 36 Q82 26 88 36" stroke="#bf360c" stroke-width="1.5" fill="none" opacity="0.5599999999999999" transform="rotate(106,82,31)"/><path d="M126 0 Q132 -10 138 0" stroke="#bf360c" stroke-width="1.5" fill="none" opacity="0.35" transform="rotate(159,132,-5)"/><path d="M152 18 Q158 8 164 18" stroke="#bf360c" stroke-width="1.5" fill="none" opacity="0.45499999999999996" transform="rotate(212,158,13)"/><path d="M202 36 Q208 26 214 36" stroke="#bf360c" stroke-width="1.5" fill="none" opacity="0.5599999999999999" transform="rotate(265,208,31)"/><path d="M228 0 Q234 -10 240 0" stroke="#bf360c" stroke-width="1.5" fill="none" opacity="0.35" transform="rotate(318,234,-5)"/><path d="M278 18 Q284 8 290 18" stroke="#bf360c" stroke-width="1.5" fill="none" opacity="0.45499999999999996" transform="rotate(371,284,13)"/><path d="M304 36 Q310 26 316 36" stroke="#bf360c" stroke-width="1.5" fill="none" opacity="0.5599999999999999" transform="rotate(424,310,31)"/><path d="M354 0 Q360 -10 366 0" stroke="#bf360c" stroke-width="1.5" fill="none" opacity="0.35" transform="rotate(477,360,-5)"/><path d="M380 18 Q386 8 392 18" stroke="#bf360c" stroke-width="1.5" fill="none" opacity="0.45499999999999996" transform="rotate(530,386,13)"/><path d="M430 36 Q436 26 442 36" stroke="#bf360c" stroke-width="1.5" fill="none" opacity="0.5599999999999999" transform="rotate(583,436,31)"/><path d="M456 0 Q462 -10 468 0" stroke="#bf360c" stroke-width="1.5" fill="none" opacity="0.35" transform="rotate(636,462,-5)"/><path d="M506 18 Q512 8 518 18" stroke="#bf360c" stroke-width="1.5" fill="none" opacity="0.45499999999999996" transform="rotate(689,512,13)"/><path d="M532 36 Q538 26 544 36" stroke="#bf360c" stroke-width="1.5" fill="none" opacity="0.5599999999999999" transform="rotate(742,538,31)"/><path d="M582 0 Q588 -10 594 0" stroke="#bf360c" stroke-width="1.5" fill="none" opacity="0.35" transform="rotate(795,588,-5)"/><path d="M608 18 Q614 8 620 18" stroke="#bf360c" stroke-width="1.5" fill="none" opacity="0.45499999999999996" transform="rotate(848,614,13)"/><path d="M658 36 Q664 26 670 36" stroke="#bf360c" stroke-width="1.5" fill="none" opacity="0.5599999999999999" transform="rotate(901,664,31)"/><path d="M684 0 Q690 -10 696 0" stroke="#bf360c" stroke-width="1.5" fill="none" opacity="0.35" transform="rotate(954,690,-5)"/><path d="M734 18 Q740 8 746 18" stroke="#bf360c" stroke-width="1.5" fill="none" opacity="0.45499999999999996" transform="rotate(1007,740,13)"/>
    <path d="M300 50 Q306 40 312 50" stroke="#e65100" stroke-width="1.5" fill="none" opacity="0.3" transform="rotate(0,306,45)"/><path d="M350 68 Q356 58 362 68" stroke="#e65100" stroke-width="1.5" fill="none" opacity="0.39" transform="rotate(53,356,63)"/><path d="M376 86 Q382 76 388 86" stroke="#e65100" stroke-width="1.5" fill="none" opacity="0.48" transform="rotate(106,382,81)"/><path d="M426 50 Q432 40 438 50" stroke="#e65100" stroke-width="1.5" fill="none" opacity="0.3" transform="rotate(159,432,45)"/><path d="M452 68 Q458 58 464 68" stroke="#e65100" stroke-width="1.5" fill="none" opacity="0.39" transform="rotate(212,458,63)"/><path d="M502 86 Q508 76 514 86" stroke="#e65100" stroke-width="1.5" fill="none" opacity="0.48" transform="rotate(265,508,81)"/><path d="M528 50 Q534 40 540 50" stroke="#e65100" stroke-width="1.5" fill="none" opacity="0.3" transform="rotate(318,534,45)"/><path d="M578 68 Q584 58 590 68" stroke="#e65100" stroke-width="1.5" fill="none" opacity="0.39" transform="rotate(371,584,63)"/><path d="M604 86 Q610 76 616 86" stroke="#e65100" stroke-width="1.5" fill="none" opacity="0.48" transform="rotate(424,610,81)"/><path d="M654 50 Q660 40 666 50" stroke="#e65100" stroke-width="1.5" fill="none" opacity="0.3" transform="rotate(477,660,45)"/><path d="M680 68 Q686 58 692 68" stroke="#e65100" stroke-width="1.5" fill="none" opacity="0.39" transform="rotate(530,686,63)"/><path d="M730 86 Q736 76 742 86" stroke="#e65100" stroke-width="1.5" fill="none" opacity="0.48" transform="rotate(583,736,81)"/><path d="M756 50 Q762 40 768 50" stroke="#e65100" stroke-width="1.5" fill="none" opacity="0.3" transform="rotate(636,762,45)"/><path d="M806 68 Q812 58 818 68" stroke="#e65100" stroke-width="1.5" fill="none" opacity="0.39" transform="rotate(689,812,63)"/><path d="M832 86 Q838 76 844 86" stroke="#e65100" stroke-width="1.5" fill="none" opacity="0.48" transform="rotate(742,838,81)"/>
    <!-- 落叶片片 -->
    
      <ellipse cx="50" cy="200" rx="5" ry="3" fill="#ffa000" opacity="0.5" transform="rotate(0,50,200)"/>
    
      <ellipse cx="127" cy="235" rx="5" ry="3" fill="#ffa000" opacity="0.6" transform="rotate(29,127,235)"/>
    
      <ellipse cx="204" cy="270" rx="5" ry="3" fill="#ffa000" opacity="0.7" transform="rotate(58,204,270)"/>
    
      <ellipse cx="236" cy="305" rx="5" ry="3" fill="#ffa000" opacity="0.8" transform="rotate(87,236,305)"/>
    
      <ellipse cx="313" cy="200" rx="5" ry="3" fill="#ffa000" opacity="0.5" transform="rotate(116,313,200)"/>
    
      <ellipse cx="390" cy="235" rx="5" ry="3" fill="#ffa000" opacity="0.6" transform="rotate(145,390,235)"/>
    
      <ellipse cx="422" cy="270" rx="5" ry="3" fill="#ffa000" opacity="0.7" transform="rotate(174,422,270)"/>
    
      <ellipse cx="499" cy="305" rx="5" ry="3" fill="#ffa000" opacity="0.8" transform="rotate(203,499,305)"/>
    
      <ellipse cx="576" cy="200" rx="5" ry="3" fill="#ffa000" opacity="0.5" transform="rotate(232,576,200)"/>
    
      <ellipse cx="608" cy="235" rx="5" ry="3" fill="#ffa000" opacity="0.6" transform="rotate(261,608,235)"/>
    
      <ellipse cx="685" cy="270" rx="5" ry="3" fill="#ffa000" opacity="0.7" transform="rotate(290,685,270)"/>
    
      <ellipse cx="762" cy="305" rx="5" ry="3" fill="#ffa000" opacity="0.8" transform="rotate(319,762,305)"/>
    
    <!-- 明月 -->
    <circle cx="650" cy="100" r="45" fill="#fff9c4" opacity="0.85"/>
    <circle cx="650" cy="100" r="38" fill="#fffde7" opacity="0.9"/>
    <circle cx="640" cy="92" r="10" fill="#f5f5f5" opacity="0.3"/>
    <!-- 秋收稻田 -->
    <path d="M0 380 Q200 362 400 372 Q600 358 800 368 L800 400 L0 400Z" fill="#f9a825" opacity="0.7"/>
  

  <!-- 底部渐变遮罩 -->
  <rect x="0" y="320" width="800" height="80" fill="url(#sky)" opacity="0.3" rx="0"/>

  <!-- 标题区背景 -->
  <rect x="250" y="130" width="300" height="160" fill="#fff" opacity="0.18" rx="12"/>

  <!-- 主标题 -->
  <text x="400" y="208" text-anchor="middle" font-size="80" font-weight="bold"
    fill="#bf360c" font-family="'Noto Serif SC', 'SimHei', 'STKaiti', serif"
    filter="url(#softShadow)" letter-spacing="8">立秋</text>

  <!-- 拼音 -->
  <text x="400" y="246" text-anchor="middle" font-size="20"
    fill="#bf360c" opacity="0.7"
    font-family="Arial, sans-serif" letter-spacing="6">Lìqiū</text>

  <!-- 分隔线 -->
  <line x1="350" y1="265" x2="450" y2="265" stroke="#bf360c" stroke-width="1.5" opacity="0.4"/>

  <!-- 日期 -->
  <text x="400" y="287" text-anchor="middle" font-size="15"
    fill="#bf360c" opacity="0.65"
    font-family="'Noto Sans SC', Arial, sans-serif">08月07日 · 二十四节气</text>

  <!-- 底部关键词 -->
  <text x="400" y="378" text-anchor="middle" font-size="13"
    fill="#bf360c" opacity="0.5"
    font-family="'Noto Sans SC', Arial, sans-serif">收获  ·  秋凉  ·  落叶  ·  金秋</text>
</svg>