<?xml version="1.0" encoding="UTF-8"?>
<svg width="800" height="400" viewBox="0 0 800 400" xmlns="http://www.w3.org/2000/svg">
  <defs>
    <linearGradient id="sky" x1="0" y1="0" x2="0" y2="1">
      <stop offset="0%" stop-color="#fff9c4"/>
      <stop offset="35%" stop-color="#ffecb3"/>
      <stop offset="70%" stop-color="#fff8e1"/>
      <stop offset="100%" stop-color="#fffde7"/>
    </linearGradient>
    <filter id="softShadow" x="-5%" y="-5%" width="110%" height="110%">
      <feDropShadow dx="0" dy="4" stdDeviation="8" flood-color="#bf360c" flood-opacity="0.15"/>
    </filter>
    <filter id="glow" x="-20%" y="-20%" width="140%" height="140%">
      <feGaussianBlur stdDeviation="4" result="blur"/>
      <feComposite in="SourceGraphic" in2="blur" operator="over"/>
    </filter>
    <radialGradient id="sunGlow" cx="50%" cy="50%" r="50%">
      <stop offset="0%" stop-color="#fff9c4" stop-opacity="0.6"/>
      <stop offset="100%" stop-color="#fff9c4" stop-opacity="0"/>
    </radialGradient>
  </defs>

  <!-- 天空背景 -->
  <rect width="800" height="400" fill="url(#sky)" rx="16"/>

  <!-- 远景大圆装饰 -->
  <circle cx="780" cy="20" r="100" fill="#fff" opacity="0.08"/>
  <circle cx="20" cy="390" r="70" fill="#fff" opacity="0.06"/>

  <!-- 节气专属场景 -->
  
    <!-- 夏日荷塘 -->
    <path d="M0 350 Q200 330 400 342 Q600 325 800 338 L800 400 L0 400Z" fill="#4fc3f7" opacity="0.7"/>
    <path d="M0 365 Q200 345 400 357 Q600 340 800 353 L800 400 L0 400Z" fill="#4fc3f7" opacity="0.4"/>
    <!-- 荷花 -->
    <ellipse cx="150" cy="370" rx="20" ry="10" fill="#1e88e5" opacity="0.7"/>
    <ellipse cx="150" cy="368" rx="14" ry="7" fill="#ff6f00" opacity="0.8"/>
    <path d="M140 368 Q150 358 160 368" stroke="#f48fb1" stroke-width="1.5" fill="none"/>
    <path d="M143 366 Q150 357 157 366" stroke="#f8bbd0" stroke-width="1" fill="none"/>
    <ellipse cx="350" cy="375" rx="18" ry="9" fill="#1e88e5" opacity="0.7"/>
    <ellipse cx="350" cy="373" rx="12" ry="6" fill="#ff6f00" opacity="0.7"/>
    <!-- 荷叶 -->
    <ellipse cx="220" cy="378" rx="25" ry="12" fill="#1e88e5" opacity="0.8"/>
    <path d="M220 366 Q220 378 220 390" stroke="#90caf9" stroke-width="1.5" fill="none"/>
    <ellipse cx="480" cy="382" rx="22" ry="10" fill="#1e88e5" opacity="0.75"/>
    <!-- 烈日 -->
    <circle cx="650" cy="100" r="60" fill="#ff8f00" opacity="0.9"/>
    <circle cx="650" cy="100" r="48" fill="#ffca28" opacity="0.8"/>
    <circle cx="650" cy="100" r="35" fill="#fff9c4" opacity="0.7"/>
    
      <line x1="720" y1="100" x2="740" y2="100" stroke="#fff176" stroke-width="2" opacity="0.5"/>
    
      <line x1="710.6217782649107" y1="135" x2="727.9422863405995" y2="145" stroke="#fff176" stroke-width="2" opacity="0.5"/>
    
      <line x1="685" y1="160.6217782649107" x2="695" y2="177.94228634059948" stroke="#fff176" stroke-width="2" opacity="0.5"/>
    
      <line x1="650" y1="170" x2="650" y2="190" stroke="#fff176" stroke-width="2" opacity="0.5"/>
    
      <line x1="615" y1="160.62177826491072" x2="605" y2="177.94228634059948" stroke="#fff176" stroke-width="2" opacity="0.5"/>
    
      <line x1="589.3782217350893" y1="135" x2="572.0577136594005" y2="145" stroke="#fff176" stroke-width="2" opacity="0.5"/>
    
      <line x1="580" y1="100.00000000000001" x2="560" y2="100.00000000000001" stroke="#fff176" stroke-width="2" opacity="0.5"/>
    
      <line x1="589.3782217350893" y1="65" x2="572.0577136594005" y2="54.99999999999999" stroke="#fff176" stroke-width="2" opacity="0.5"/>
    
      <line x1="615" y1="39.37822173508931" x2="605" y2="22.057713659400548" stroke="#fff176" stroke-width="2" opacity="0.5"/>
    
      <line x1="650" y1="30" x2="650" y2="10" stroke="#fff176" stroke-width="2" opacity="0.5"/>
    
      <line x1="685" y1="39.3782217350893" x2="695" y2="22.05771365940052" stroke="#fff176" stroke-width="2" opacity="0.5"/>
    
      <line x1="710.6217782649107" y1="64.99999999999997" x2="727.9422863405995" y2="54.99999999999996" stroke="#fff176" stroke-width="2" opacity="0.5"/>
    
    <!-- 夏日蝉鸣 -->
    <ellipse cx="80" cy="220" rx="15" ry="20" fill="#42a5f5" opacity="0.9"/>
    <path d="M70 200 Q80 195 90 200" stroke="#42a5f5" stroke-width="3" fill="none"/>
    <ellipse cx="80" cy="200" rx="12" ry="8" fill="#90caf9" opacity="0.9"/>
    <!-- 夏日草地 -->
    <path d="M0 390 Q200 375 400 382 Q600 370 800 378 L800 400 L0 400Z" fill="#1e88e5" opacity="0.8"/>
    <!-- 蜻蜓 -->
    <ellipse cx="560" cy="280" rx="12" ry="3" fill="#90caf9" opacity="0.9"/>
    <path d="M552 280 L548 272 M552 280 L550 270" stroke="#90caf9" stroke-width="1"/>
    <path d="M568 280 L572 272 M568 280 L570 270" stroke="#90caf9" stroke-width="1"/>
    <path d="M552 280 L548 288 M552 280 L550 290" stroke="#90caf9" stroke-width="1"/>
    <path d="M568 280 L572 288 M568 280 L570 290" stroke="#90caf9" stroke-width="1"/>
  

  <!-- 底部渐变遮罩 -->
  <rect x="0" y="320" width="800" height="80" fill="url(#sky)" opacity="0.3" rx="0"/>

  <!-- 标题区背景 -->
  <rect x="250" y="130" width="300" height="160" fill="#fff" opacity="0.18" rx="12"/>

  <!-- 主标题 -->
  <text x="400" y="208" text-anchor="middle" font-size="80" font-weight="bold"
    fill="#bf360c" font-family="'Noto Serif SC', 'SimHei', 'STKaiti', serif"
    filter="url(#softShadow)" letter-spacing="8">立夏</text>

  <!-- 拼音 -->
  <text x="400" y="246" text-anchor="middle" font-size="20"
    fill="#bf360c" opacity="0.7"
    font-family="Arial, sans-serif" letter-spacing="6">Lìxià</text>

  <!-- 分隔线 -->
  <line x1="350" y1="265" x2="450" y2="265" stroke="#bf360c" stroke-width="1.5" opacity="0.4"/>

  <!-- 日期 -->
  <text x="400" y="287" text-anchor="middle" font-size="15"
    fill="#bf360c" opacity="0.65"
    font-family="'Noto Sans SC', Arial, sans-serif">05月05日 · 二十四节气</text>

  <!-- 底部关键词 -->
  <text x="400" y="378" text-anchor="middle" font-size="13"
    fill="#bf360c" opacity="0.5"
    font-family="'Noto Sans SC', Arial, sans-serif">炎暑  ·  繁茂  ·  生长  ·  夏始</text>
</svg>