<?xml version="1.0" encoding="UTF-8"?>
<svg width="1300" height="400" viewBox="0 0 1300 400" xmlns="http://www.w3.org/2000/svg">
  <defs>
    <linearGradient id="sky" x1="0" y1="0" x2="0" y2="1">
      <stop offset="0%" stop-color="#e3f2fd"/>
      <stop offset="35%" stop-color="#bbdefb"/>
      <stop offset="70%" stop-color="#f5f5f5"/>
      <stop offset="100%" stop-color="#eceff1"/>
    </linearGradient>
    <filter id="softShadow" x="-5%" y="-5%" width="110%" height="110%">
      <feDropShadow dx="0" dy="4" stdDeviation="8" flood-color="#37474f" flood-opacity="0.15"/>
    </filter>
    <filter id="glow" x="-20%" y="-20%" width="140%" height="140%">
      <feGaussianBlur stdDeviation="4" result="blur"/>
      <feComposite in="SourceGraphic" in2="blur" operator="over"/>
    </filter>
    <radialGradient id="sunGlow" cx="50%" cy="50%" r="50%">
      <stop offset="0%" stop-color="#fff9c4" stop-opacity="0.6"/>
      <stop offset="100%" stop-color="#fff9c4" stop-opacity="0"/>
    </radialGradient>
  </defs>

  <!-- 天空背景 -->
  <rect width="1300" height="400" fill="url(#sky)" rx="16"/>

  <!-- 远景大圆装饰 -->
  <circle cx="1267.5" cy="20" r="100" fill="#fff" opacity="0.08"/>
  <circle cx="32.5" cy="390" r="70" fill="#fff" opacity="0.06"/>

  <!-- 节气专属场景 -->
  
    <!-- 远景雪山 -->
    <path d="M0 280 L80 180 L160 220 L240 140 L330 200 L400 110 L480 170 L560 120 L640 180 L720 130 L800 190 L800 400 L0 400Z" fill="#90a4ae" opacity="0.5"/>
    <!-- 雪盖山顶 -->
    <path d="M380 110 L400 90 L420 110Z" fill="#fff" opacity="0.9"/>
    <path d="M540 120 L560 100 L580 120Z" fill="#fff" opacity="0.8"/>
    <path d="M220 140 L240 120 L260 140Z" fill="#fff" opacity="0.85"/>
    <!-- 大雪 -->
    <circle cx="0.0" cy="90" r="1" fill="#fff" opacity="0.27999999999999997"/><circle cx="30.12" cy="82.32681220240782" r="1.8" fill="#fff" opacity="0.364"/><circle cx="-36.78779782014815" cy="60.615644609122754" r="2.6" fill="#fff" opacity="0.44799999999999995"/><circle cx="88.52" cy="28.56858313677315" r="1" fill="#fff" opacity="0.5319999999999999"/><circle cx="-71.32855035180874" cy="-8.349858413789478" r="1.8" fill="#fff" opacity="0.616"/><circle cx="141.52" cy="-43.84452148230073" r="2.6" fill="#fff" opacity="0.27999999999999997"/><circle cx="-101.51246467895751" cy="-71.8630235012729" r="1" fill="#fff" opacity="0.364"/><circle cx="185.87" cy="-87.62778163073293" r="1.8" fill="#fff" opacity="0.44799999999999995"/><circle cx="-125.49586908173453" cy="-88.45066365488154" r="2.6" fill="#fff" opacity="0.5319999999999999"/><circle cx="218.87" cy="-74.19135561135087" r="1" fill="#fff" opacity="0.616"/><circle cx="-141.81382684039855" cy="-47.281287466401544" r="1.8" fill="#fff" opacity="0.27999999999999997"/><circle cx="238.5" cy="-12.309037142749094" r="2.6" fill="#fff" opacity="0.364"/><circle cx="-149.4696164257456" cy="24.762092149877827" r="1" fill="#fff" opacity="0.44799999999999995"/><circle cx="243.56" cy="57.610906257453735" r="1.8" fill="#fff" opacity="0.5319999999999999"/><circle cx="-147.99561251262008" cy="80.63618030052028" r="2.6" fill="#fff" opacity="0.616"/><circle cx="233.74" cy="89.9117531274447" r="1" fill="#fff" opacity="0.27999999999999997"/><circle cx="-137.48184912709752" cy="83.85599779975513" r="1.8" fill="#fff" opacity="0.364"/><circle cx="209.65" cy="63.5015131593545" r="2.6" fill="#fff" opacity="0.44799999999999995"/><circle cx="-118.57052025412939" cy="32.31904994333166" r="1" fill="#fff" opacity="0.5319999999999999"/><circle cx="172.75" cy="-4.374305265023275" r="1.8" fill="#fff" opacity="0.616"/>
    <circle cx="325.0" cy="102" r="1" fill="#fff" opacity="0.24"/><circle cx="349.1" cy="95.86144976192625" r="1.8" fill="#fff" opacity="0.312"/><circle cx="277.18" cy="78.49251568729821" r="2.6" fill="#fff" opacity="0.384"/><circle cx="395.82" cy="52.854866509418514" r="1" fill="#fff" opacity="0.45599999999999996"/><circle cx="232.27" cy="23.320113268968417" r="1.8" fill="#fff" opacity="0.528"/><circle cx="438.21" cy="-5.075617185840585" r="2.6" fill="#fff" opacity="0.24"/><circle cx="193.03" cy="-27.49041880101833" r="1" fill="#fff" opacity="0.312"/><circle cx="473.7" cy="-40.10222530458633" r="1.8" fill="#fff" opacity="0.384"/><circle cx="161.86" cy="-40.76053092390522" r="2.6" fill="#fff" opacity="0.45599999999999996"/><circle cx="500.09" cy="-29.3530844890807" r="1" fill="#fff" opacity="0.528"/><circle cx="140.64" cy="-7.825029973121239" r="1.8" fill="#fff" opacity="0.24"/><circle cx="515.8" cy="20.152770285800727" r="2.6" fill="#fff" opacity="0.312"/><circle cx="130.69" cy="49.809673719902264" r="1" fill="#fff" opacity="0.384"/><circle cx="519.85" cy="76.088725005963" r="1.8" fill="#fff" opacity="0.45599999999999996"/><circle cx="132.61" cy="94.50894424041623" r="2.6" fill="#fff" opacity="0.528"/><circle cx="511.99" cy="101.92940250195576" r="1" fill="#fff" opacity="0.24"/><circle cx="146.27" cy="97.08479823980412" r="1.8" fill="#fff" opacity="0.312"/><circle cx="492.72" cy="80.80121052748359" r="2.6" fill="#fff" opacity="0.384"/><circle cx="170.86" cy="55.85523995466533" r="1" fill="#fff" opacity="0.45599999999999996"/><circle cx="463.2" cy="26.50055578798138" r="1.8" fill="#fff" opacity="0.528"/>
    <!-- 结冰河面 -->
    <path d="M0 370 Q200 355 400 368 Q600 350 800 365 L800 400 L0 400Z" fill="#b0bec5" opacity="0.6"/>
    <ellipse cx="650.0" cy="375" rx="150" ry="6" fill="#fff" opacity="0.5"/>
    <!-- 枯树 -->
    <path d="M150 400 L150 270" stroke="#5d4037" stroke-width="5" stroke-linecap="round"/>
    <path d="M150 320 Q120 290 90 300" stroke="#5d4037" stroke-width="3" fill="none" stroke-linecap="round"/>
    <path d="M150 300 Q180 270 210 280" stroke="#5d4037" stroke-width="2.5" fill="none" stroke-linecap="round"/>
    <!-- 雪中鸟巢 -->
    <ellipse cx="243.75" cy="272" rx="20" ry="12" fill="#90a4ae" opacity="0.8"/>
    <ellipse cx="243.75" cy="275" rx="25" ry="8" fill="#fff" opacity="0.9"/>
  

  <!-- 底部渐变遮罩 -->
  <rect x="0.0" y="320" width="1300" height="80" fill="url(#sky)" opacity="0.3" rx="0"/>

  <!-- 标题区背景 -->
  <rect x="406.25" y="130" width="300" height="160" fill="#fff" opacity="0.18" rx="12"/>

  <!-- 主标题 -->
  <text x="1056.25" y="208" text-anchor="middle" font-size="80" font-weight="bold"
    fill="#37474f" font-family="'Noto Serif SC', 'SimHei', 'STKaiti', serif"
    filter="url(#softShadow)" letter-spacing="8">大寒</text>

  <!-- 拼音 -->
  <text x="1056.25" y="246" text-anchor="middle" font-size="20"
    fill="#37474f" opacity="0.7"
    font-family="Arial, sans-serif" letter-spacing="6">Dàhán</text>

  <!-- 分隔线 -->
  <line x1="350" y1="265" x2="450" y2="265" stroke="#37474f" stroke-width="1.5" opacity="0.4"/>

  <!-- 日期 -->
  <text x="1056.25" y="287" text-anchor="middle" font-size="15"
    fill="#37474f" opacity="0.65"
    font-family="'Noto Sans SC', Arial, sans-serif">01月20日 · 二十四节气</text>

  <!-- 底部关键词 -->
  <text x="1056.25" y="378" text-anchor="middle" font-size="13"
    fill="#37474f" opacity="0.5"
    font-family="'Noto Sans SC', Arial, sans-serif">极寒  ·  冰天  ·  岁末  ·  守岁</text>
</svg>