<?xml version="1.0" encoding="UTF-8"?>
<svg width="1300" height="400" viewBox="0 0 1300 400" xmlns="http://www.w3.org/2000/svg">
  <defs>
    <linearGradient id="sky" x1="0" y1="0" x2="0" y2="1">
      <stop offset="0%" stop-color="#c8e6c9"/>
      <stop offset="35%" stop-color="#a5d6a7"/>
      <stop offset="70%" stop-color="#e8f5e9"/>
      <stop offset="100%" stop-color="#f1f8e9"/>
    </linearGradient>
    <filter id="softShadow" x="-5%" y="-5%" width="110%" height="110%">
      <feDropShadow dx="0" dy="4" stdDeviation="8" flood-color="#1b5e20" flood-opacity="0.15"/>
    </filter>
    <filter id="glow" x="-20%" y="-20%" width="140%" height="140%">
      <feGaussianBlur stdDeviation="4" result="blur"/>
      <feComposite in="SourceGraphic" in2="blur" operator="over"/>
    </filter>
    <radialGradient id="sunGlow" cx="50%" cy="50%" r="50%">
      <stop offset="0%" stop-color="#fff9c4" stop-opacity="0.6"/>
      <stop offset="100%" stop-color="#fff9c4" stop-opacity="0"/>
    </radialGradient>
  </defs>

  <!-- 天空背景 -->
  <rect width="1300" height="400" fill="url(#sky)" rx="16"/>

  <!-- 远景大圆装饰 -->
  <circle cx="1267.5" cy="20" r="100" fill="#fff" opacity="0.08"/>
  <circle cx="32.5" cy="390" r="70" fill="#fff" opacity="0.06"/>

  <!-- 节气专属场景 -->
  
    <!-- 远山 -->
    <path d="M0 290 Q150 255 300 275 Q480 240 650 265 Q750 248 800 258 L800 400 L0 400Z" fill="#a5d6a7" opacity="0.45"/>
    <!-- 雾气 -->
    <ellipse cx="650.0" cy="320" rx="400" ry="60" fill="rgba(200,230,201,0.5)" opacity="0.4"/>
    <!-- 清明河 -->
    <path d="M0 350 Q200 335 400 345 Q600 328 800 340 L800 400 L0 400Z" fill="#b2dfdb" opacity="0.6"/>
    <!-- 草地 -->
    <path d="M0 380 Q200 362 400 372 Q600 358 800 368 L800 400 L0 400Z" fill="#2e7d32" opacity="0.7"/>
    <!-- 雨纷纷 -->
    <line x1="0" y1="50" x2="-4" y2="68" stroke="#78909c" stroke-width="1.2" opacity="0.12"/><line x1="28" y1="62" x2="24" y2="80" stroke="#78909c" stroke-width="1.2" opacity="0.18"/><line x1="56" y1="74" x2="52" y2="92" stroke="#78909c" stroke-width="1.2" opacity="0.24"/><line x1="84" y1="50" x2="80" y2="68" stroke="#78909c" stroke-width="1.2" opacity="0.30000000000000004"/><line x1="112" y1="62" x2="108" y2="80" stroke="#78909c" stroke-width="1.2" opacity="0.12"/><line x1="140" y1="74" x2="136" y2="92" stroke="#78909c" stroke-width="1.2" opacity="0.18"/><line x1="168" y1="50" x2="164" y2="68" stroke="#78909c" stroke-width="1.2" opacity="0.24"/><line x1="196" y1="62" x2="192" y2="80" stroke="#78909c" stroke-width="1.2" opacity="0.30000000000000004"/><line x1="224" y1="74" x2="220" y2="92" stroke="#78909c" stroke-width="1.2" opacity="0.12"/><line x1="252" y1="50" x2="248" y2="68" stroke="#78909c" stroke-width="1.2" opacity="0.18"/><line x1="280" y1="62" x2="276" y2="80" stroke="#78909c" stroke-width="1.2" opacity="0.24"/><line x1="308" y1="74" x2="304" y2="92" stroke="#78909c" stroke-width="1.2" opacity="0.30000000000000004"/><line x1="336" y1="50" x2="332" y2="68" stroke="#78909c" stroke-width="1.2" opacity="0.12"/><line x1="364" y1="62" x2="360" y2="80" stroke="#78909c" stroke-width="1.2" opacity="0.18"/><line x1="392" y1="74" x2="388" y2="92" stroke="#78909c" stroke-width="1.2" opacity="0.24"/><line x1="420" y1="50" x2="416" y2="68" stroke="#78909c" stroke-width="1.2" opacity="0.30000000000000004"/><line x1="448" y1="62" x2="444" y2="80" stroke="#78909c" stroke-width="1.2" opacity="0.12"/><line x1="476" y1="74" x2="472" y2="92" stroke="#78909c" stroke-width="1.2" opacity="0.18"/><line x1="504" y1="50" x2="500" y2="68" stroke="#78909c" stroke-width="1.2" opacity="0.24"/><line x1="532" y1="62" x2="528" y2="80" stroke="#78909c" stroke-width="1.2" opacity="0.30000000000000004"/><line x1="560" y1="74" x2="556" y2="92" stroke="#78909c" stroke-width="1.2" opacity="0.12"/><line x1="588" y1="50" x2="584" y2="68" stroke="#78909c" stroke-width="1.2" opacity="0.18"/><line x1="616" y1="62" x2="612" y2="80" stroke="#78909c" stroke-width="1.2" opacity="0.24"/><line x1="644" y1="74" x2="640" y2="92" stroke="#78909c" stroke-width="1.2" opacity="0.30000000000000004"/><line x1="672" y1="50" x2="668" y2="68" stroke="#78909c" stroke-width="1.2" opacity="0.12"/>
    <!-- 扫墓的人 -->
    <path d="M280 400 L280 365" stroke="#5d4037" stroke-width="3"/>
    <circle cx="455.0" cy="358" r="9" fill="#795548"/>
    <path d="M280 370 L260 385" stroke="#5d4037" stroke-width="2"/><path d="M280 370 L295 382" stroke="#5d4037" stroke-width="2"/>
    <!-- 纸钱飘 -->
    <rect x="422.5" y="340" width="8" height="5" fill="#fff" opacity="0.7" transform="rotate(15,264,342)"/>
    <rect x="468.0" y="335" width="7" height="4" fill="#fff" opacity="0.6" transform="rotate(-20,291,337)"/>
    <!-- 远山亭 -->
    <rect x="910.0" y="295" width="40" height="35" fill="#a5d6a7" opacity="0.7" rx="2"/>
    <path d="M550 295 L580 275 L610 295Z" fill="#2e7d32" opacity="0.8"/>
    <ellipse cx="942.5" cy="330" rx="40" ry="6" fill="#fff" opacity="0.5"/>
    <!-- 嫩草 -->
    <path d="M60 400 Q63 375 60 383" stroke="#81c784" stroke-width="2" fill="none" stroke-linecap="round" opacity="0.6"/><path d="M150 400 Q153 365 150 373" stroke="#81c784" stroke-width="2" fill="none" stroke-linecap="round" opacity="0.8"/><path d="M240 400 Q243 375 240 383" stroke="#81c784" stroke-width="2" fill="none" stroke-linecap="round" opacity="0.6"/><path d="M330 400 Q333 365 330 373" stroke="#81c784" stroke-width="2" fill="none" stroke-linecap="round" opacity="0.8"/><path d="M420 400 Q423 375 420 383" stroke="#81c784" stroke-width="2" fill="none" stroke-linecap="round" opacity="0.6"/><path d="M510 400 Q513 365 510 373" stroke="#81c784" stroke-width="2" fill="none" stroke-linecap="round" opacity="0.8"/><path d="M600 400 Q603 375 600 383" stroke="#81c784" stroke-width="2" fill="none" stroke-linecap="round" opacity="0.6"/><path d="M690 400 Q693 365 690 373" stroke="#81c784" stroke-width="2" fill="none" stroke-linecap="round" opacity="0.8"/>
  

  <!-- 底部渐变遮罩 -->
  <rect x="0.0" y="320" width="1300" height="80" fill="url(#sky)" opacity="0.3" rx="0"/>

  <!-- 标题区背景 -->
  <rect x="406.25" y="130" width="300" height="160" fill="#fff" opacity="0.18" rx="12"/>

  <!-- 主标题 -->
  <text x="1056.25" y="208" text-anchor="middle" font-size="80" font-weight="bold"
    fill="#1b5e20" font-family="'Noto Serif SC', 'SimHei', 'STKaiti', serif"
    filter="url(#softShadow)" letter-spacing="8">清明</text>

  <!-- 拼音 -->
  <text x="1056.25" y="246" text-anchor="middle" font-size="20"
    fill="#1b5e20" opacity="0.7"
    font-family="Arial, sans-serif" letter-spacing="6">Qīngmíng</text>

  <!-- 分隔线 -->
  <line x1="350" y1="265" x2="450" y2="265" stroke="#1b5e20" stroke-width="1.5" opacity="0.4"/>

  <!-- 日期 -->
  <text x="1056.25" y="287" text-anchor="middle" font-size="15"
    fill="#1b5e20" opacity="0.65"
    font-family="'Noto Sans SC', Arial, sans-serif">04月04日 · 二十四节气</text>

  <!-- 底部关键词 -->
  <text x="1056.25" y="378" text-anchor="middle" font-size="13"
    fill="#1b5e20" opacity="0.5"
    font-family="'Noto Sans SC', Arial, sans-serif">追思  ·  踏青  ·  新生  ·  春意盎然</text>
</svg>